<?xml version="1.0" encoding="UTF-8"?>
<svg width="383px" height="148px" viewBox="0 0 383 148" version="1.1" xmlns="http://www.w3.org/2000/svg" xmlns:xlink="http://www.w3.org/1999/xlink">
    <title>Group</title>
    <defs>
        <linearGradient x1="-29.4808175%" y1="35.8869439%" x2="176.938474%" y2="95.7210336%" id="linearGradient-1">
            <stop stop-color="#42C7FF" offset="0%"></stop>
            <stop stop-color="#8218FF" offset="100%"></stop>
        </linearGradient>
    </defs>
    <g id="Page-1" stroke="none" stroke-width="1" fill="none" fill-rule="evenodd">
        <g id="A4" transform="translate(-151.000000, -188.000000)" fill-rule="nonzero">
            <g id="Group-2" transform="translate(151.000000, 154.000000)">
                <g id="Group" transform="translate(0.000000, 34.000000)">
                    <text id="React-Native" fill="url(#linearGradient-1)" font-family="Imprima-Regular, Imprima" font-size="64" font-weight="normal" letter-spacing="5.37523803">
                        <tspan x="172" y="59">React</tspan>
                        <tspan x="172" y="133">Native</tspan>
                    </text>
                    <g id="React-icon" transform="translate(0.000000, 10.000000)" fill="#6175FF">
                        <path d="M138,61.5140764 C138,52.3643854 126.55157,43.6932937 108.999185,38.3160906 C113.049735,20.4108492 111.24949,6.16548409 103.317163,1.60471504 C101.488789,0.534905013 99.3509988,0.0281528954 97.0163066,0.0281528954 L97.0163066,6.30624857 C98.3102324,6.30624857 99.3509988,6.55962463 100.222992,7.03822385 C104.048512,9.23414969 105.708113,17.5955596 104.414187,28.3499657 C104.10477,30.9963378 103.598451,33.7834745 102.979617,36.6269169 C97.4663677,35.2755779 91.4467998,34.2339208 85.1178149,33.5582513 C81.320424,28.3499657 77.3823889,23.6202792 73.416225,19.4818036 C82.586221,10.9514763 91.1936404,6.27809567 97.0444354,6.27809567 L97.0444354,0 C97.0444354,0 97.0444354,0 97.0444354,0 C89.3090094,0 79.1826335,5.5179675 68.9437424,15.0899519 C58.7048512,5.57427329 48.5784753,0.112611582 40.8430493,0.112611582 L40.8430493,6.39070726 C46.6657155,6.39070726 55.3012638,11.035935 64.4712597,19.5099565 C60.5332246,23.6484321 56.5951896,28.3499657 52.8540563,33.5582513 C46.4969425,34.2339208 40.4773746,35.2755779 34.9641256,36.6550698 C34.3171627,33.8397803 33.8389727,31.1089494 33.5014268,28.4907301 C32.1793722,17.7363241 33.8108439,9.37491417 37.6082348,7.15083543 C38.4520995,6.64408331 39.5491235,6.41886015 40.8430493,6.41886015 L40.8430493,0.140764477 C40.8430493,0.140764477 40.8430493,0.140764477 40.8430493,0.140764477 C38.4802283,0.140764477 36.3424378,0.647516594 34.4859356,1.71732662 C26.5817366,6.27809567 24.8096209,20.4953079 28.8883,38.3442435 C11.3921728,43.7495995 0,52.3925383 0,61.5140764 C0,70.6637675 11.4484305,79.3348592 29.0008153,84.7120623 C24.950265,102.617304 26.7505096,116.862669 34.6828373,121.423438 C36.5112108,122.493248 38.6490012,123 41.0118223,123 C48.7472483,123 58.8736241,117.482033 69.1125153,107.910048 C79.3514064,117.425727 89.4777823,122.887388 97.2132083,122.887388 C99.5760294,122.887388 101.71382,122.380636 103.570322,121.310826 C111.474521,116.750057 113.246637,102.532845 109.167958,84.6839094 C126.607827,79.3067063 138,70.6356146 138,61.5140764 Z M101.376274,42.7360952 C100.335508,46.3678187 99.0415817,50.1121538 97.578883,53.8564889 C96.4256013,51.6042573 95.216062,49.3520256 93.8940073,47.099794 C92.6000815,44.8475624 91.2217693,42.6516365 89.843457,40.5120165 C93.8377497,41.1032273 97.6913983,41.8352026 101.376274,42.7360952 Z M88.4932735,72.7189288 C86.2992254,76.5195697 84.0489197,80.1231403 81.7142275,83.4733349 C77.523033,83.8393225 73.2755809,84.0363928 69,84.0363928 C64.7525479,84.0363928 60.5050958,83.8393225 56.3420302,83.5014878 C54.007338,80.1512932 51.7289034,76.5758755 49.5348553,72.8033875 C47.3970648,69.1153582 45.4561761,65.3710231 43.6840603,61.5985351 C45.4280473,57.8260472 47.3970648,54.0535592 49.5067265,50.3655299 C51.7007746,46.564889 53.9510803,42.9613184 56.2857725,39.6111238 C60.476967,39.2451362 64.7244191,39.0480659 69,39.0480659 C73.2474521,39.0480659 77.4949042,39.2451362 81.6579698,39.5829709 C83.992662,42.9331655 86.2710966,46.5085832 88.4651447,50.2810712 C90.6029352,53.9691005 92.5438239,57.7134356 94.3159397,61.4859236 C92.5438239,65.2584115 90.6029352,69.0308995 88.4932735,72.7189288 Z M97.578883,69.0590524 C99.0978394,72.8315404 100.391765,76.6040284 101.46066,80.2639048 C97.7757848,81.1647974 93.8940073,81.9249256 89.8715858,82.5161364 C91.2498981,80.3483635 92.6282104,78.1242847 93.9221362,75.8439002 C95.216062,73.5916686 96.4256013,71.311284 97.578883,69.0590524 Z M69.0562576,99.0981918 C66.4402772,96.3955138 63.8242968,93.383154 61.2364452,90.0892653 C63.7680391,90.2018769 66.3558907,90.2863355 68.9718712,90.2863355 C71.6159804,90.2863355 74.2319609,90.2300298 76.7916837,90.0892653 C74.2600897,93.383154 71.6441093,96.3955138 69.0562576,99.0981918 Z M48.1284142,82.5161364 C44.1341215,81.9249256 40.2804729,81.1929503 36.5955972,80.2920577 C37.6363636,76.6603342 38.9302894,72.9159991 40.3929882,69.171664 C41.5462699,71.4238956 42.7558092,73.6761273 44.0778638,75.9283589 C45.3999185,78.1805905 46.7501019,80.3765164 48.1284142,82.5161364 Z M68.9156135,23.9299611 C71.531594,26.632639 74.1475744,29.6449989 76.735426,32.9388876 C74.203832,32.826276 71.6159804,32.7418173 69,32.7418173 C66.3558907,32.7418173 63.7399103,32.7981231 61.1801875,32.9388876 C63.7117815,29.6449989 66.3277619,26.632639 68.9156135,23.9299611 Z M48.1002854,40.5120165 C46.7219731,42.6797894 45.3436608,44.9038682 44.049735,47.1842527 C42.7558092,49.4364843 41.5462699,51.688716 40.3929882,53.9409476 C38.8740318,50.1684596 37.580106,46.3959716 36.5112108,42.7360952 C40.1960864,41.8633555 44.0778638,41.1032273 48.1002854,40.5120165 Z M22.6437016,75.7594415 C12.6860987,71.5083543 6.24459845,65.934081 6.24459845,61.5140764 C6.24459845,57.0940719 12.6860987,51.4916457 22.6437016,47.2687114 C25.0627803,46.2270542 27.7068895,45.2980087 30.4353852,44.4252689 C32.0387281,49.9432364 34.1483897,55.6864271 36.7643702,61.5703822 C34.1765185,67.4261845 32.0949857,73.1412222 30.5197717,78.6310369 C27.7350183,77.7582971 25.0909091,76.8010986 22.6437016,75.7594415 Z M37.7770077,115.989929 C33.951488,113.794003 32.2918875,105.432593 33.5858133,94.6781872 C33.8952303,92.0318151 34.4015491,89.2446784 35.0203832,86.401236 C40.5336323,87.752575 46.5532002,88.7942321 52.8821851,89.4699016 C56.679576,94.6781872 60.6176111,99.4078737 64.583775,103.546349 C55.413779,112.076677 46.8063596,116.750057 40.9555646,116.750057 C39.6897676,116.721904 38.6208724,116.468528 37.7770077,115.989929 Z M104.498573,94.5374228 C105.820628,105.291829 104.189156,113.653239 100.391765,115.877317 C99.5479005,116.38407 98.4508765,116.609293 97.1569507,116.609293 C91.3342845,116.609293 82.6987362,111.964065 73.5287403,103.490043 C77.4667754,99.3515679 81.4048104,94.6500343 85.1459437,89.4417487 C91.5030575,88.7660792 97.5226254,87.7244221 103.035874,86.3449302 C103.682837,89.1883726 104.189156,91.9192035 104.498573,94.5374228 Z M115.32817,75.7594415 C112.909091,76.8010986 110.264982,77.7301442 107.536486,78.602884 C105.933143,73.0849165 103.823481,67.3417258 101.207501,61.4577707 C103.795353,55.6019684 105.876885,49.8869306 107.452099,44.397116 C110.236853,45.2698558 112.880962,46.2270542 115.356298,47.2687114 C125.313901,51.5197986 131.755402,57.0940719 131.755402,61.5140764 C131.727273,65.934081 125.285773,71.5365072 115.32817,75.7594415 Z" id="Shape"></path>
                        <circle id="Oval" cx="69" cy="61" r="13"></circle>
                    </g>
                </g>
            </g>
        </g>
    </g>
</svg>